<svg width="512" height="512" xmlns="http://www.w3.org/2000/svg"><path fill="#214b6e" fill-rule="evenodd" d="M62 0C26.654 0-2 28.654-2 64v384c0 35.346 28.654 64 64 64h386c35.346 0 64-28.654 64-64V64c0-35.346-28.654-64-64-64Z"/><path fill="#f8edeb" fill-rule="evenodd" d="M263.652 458.34c-35.997 0-67.207-6.606-93.63-19.818-26.424-13.212-46.815-32.359-61.176-57.442-14.36-25.083-21.54-55.431-21.54-91.045 0-31.785 5.456-61.654 16.37-89.61 10.914-27.955 26.424-52.559 46.528-73.812 20.105-21.254 43.848-37.912 71.228-49.975 27.381-12.063 57.538-18.094 90.471-18.094 19.53 0 38.008 2.106 55.432 6.318 17.424 4.213 35.135 11.297 53.134 21.254l-13.787 88.46h-5.744l-19.53-60.888c-4.978-16.467-12.733-27.86-23.264-34.178-10.531-6.318-24.413-9.478-41.645-9.478-29.487 0-55.24 9.287-77.26 27.86-22.02 18.573-39.156 44.421-51.41 77.546-12.255 33.125-18.382 71.515-18.382 115.171 0 47.869 9.287 85.876 27.86 114.022 18.573 28.147 45.091 42.22 79.557 42.22 14.935 0 27.093-2.872 36.475-8.616 9.383-5.744 17.712-14.552 24.988-26.423l42.507-68.93h5.744l-13.786 87.311c-14.935 8.425-30.923 15.222-47.964 20.392s-37.433 7.755-61.176 7.755Z"/></svg>