<svg width="120" height="120" xmlns="http://www.w3.org/2000/svg"><path fill="#214b6e" fill-rule="evenodd" d="M40 0C17.909 0 0 17.909 0 40v40c0 22.091 17.909 40 40 40h40c22.091 0 40-17.909 40-40V40c0-22.091-17.909-40-40-40Z"/><path fill="#f8edeb" fill-rule="evenodd" d="M61.793 107.423c-8.436 0-15.751-1.548-21.944-4.644-6.193-3.097-10.972-7.584-14.338-13.463-3.366-5.88-5.049-12.992-5.049-21.34 0-7.449 1.28-14.45 3.837-21.001 2.558-6.552 6.193-12.319 10.905-17.3 4.712-4.982 10.277-8.886 16.694-11.713 6.418-2.827 13.486-4.24 21.204-4.24 4.578 0 8.908.493 12.992 1.48 4.084.987 8.235 2.648 12.453 4.981l-3.23 20.733H93.97l-4.577-14.27c-1.167-3.86-2.985-6.53-5.453-8.01-2.468-1.482-5.722-2.222-9.76-2.222-6.912 0-12.947 2.176-18.108 6.53-5.161 4.352-9.178 10.41-12.05 18.174-2.872 7.764-4.308 16.762-4.308 26.994 0 11.219 2.177 20.127 6.53 26.723 4.353 6.597 10.568 9.896 18.646 9.896 3.5 0 6.35-.673 8.549-2.02 2.199-1.346 4.151-3.41 5.856-6.193l9.963-16.155h1.346l-3.23 20.463c-3.501 1.975-7.248 3.568-11.242 4.78-3.995 1.212-8.774 1.817-14.339 1.817Z"/></svg>