<?xml version="1.0" standalone="no"?>
<!DOCTYPE svg PUBLIC "-//W3C//DTD SVG 20010904//EN"
 "http://www.w3.org/TR/2001/REC-SVG-20010904/DTD/svg10.dtd">
<svg version="1.0" xmlns="http://www.w3.org/2000/svg"
 width="260.000000pt" height="260.000000pt" viewBox="0 0 260.000000 260.000000"
 preserveAspectRatio="xMidYMid meet">
<metadata>
Created by potrace 1.14, written by Peter Selinger 2001-2017
</metadata>
<g transform="translate(0.000000,260.000000) scale(0.100000,-0.100000)"
fill="#000000" stroke="none">
<path d="M1525 2510 c-22 -4 -60 -10 -85 -13 -205 -27 -439 -131 -617 -274
-423 -339 -603 -925 -453 -1473 54 -198 189 -398 339 -499 111 -76 261 -138
371 -156 19 -3 60 -10 90 -14 30 -5 125 -8 210 -6 145 3 188 7 250 21 14 3 36
8 50 11 136 24 439 170 441 211 0 10 2 35 4 57 4 48 14 192 21 295 2 41 6 96
9 122 4 39 2 46 -13 44 -11 -1 -59 -84 -147 -256 -140 -275 -186 -340 -270
-380 -130 -63 -320 -66 -460 -6 -136 58 -258 194 -336 376 -39 91 -85 261 -95
350 -3 30 -8 62 -11 70 -3 8 -7 105 -9 215 -3 197 8 332 36 450 6 28 13 59 16
69 2 11 15 55 30 98 46 141 125 283 199 363 20 22 42 47 48 56 22 31 142 114
202 141 93 42 171 59 285 63 132 5 205 -15 273 -76 49 -42 88 -113 162 -294
20 -49 45 -108 55 -130 10 -22 21 -50 24 -62 11 -34 46 -30 47 5 0 15 2 45 4
67 2 22 6 78 9 125 14 210 18 267 21 293 2 26 -3 31 -44 49 -67 29 -150 55
-239 74 -84 18 -348 27 -417 14z"/>
</g>
</svg>
